<svg width="139" height="100%" viewBox="0 0 139 39" fill="none" xmlns="http://www.w3.org/2000/svg">
<g filter="url(#filter0_d)">
<path d="M19.276 6.8H23.384C23.5747 6.8 23.7393 6.86933 23.878 7.008C24.0167 7.14667 24.086 7.31133 24.086 7.502V24.298C24.086 24.4887 24.0167 24.6533 23.878 24.792C23.7393 24.9307 23.5747 25 23.384 25H18.678C18.4873 25 18.3227 24.9307 18.184 24.792C18.0453 24.6533 17.976 24.4887 17.976 24.298V17.174L16.26 19.982C15.9827 20.4153 15.662 20.632 15.298 20.632H13.478C13.114 20.632 12.7933 20.4153 12.516 19.982L10.8 17.174V24.298C10.8 24.4887 10.7307 24.6533 10.592 24.792C10.4533 24.9307 10.2887 25 10.098 25H5.392C5.20133 25 5.03667 24.9307 4.898 24.792C4.75933 24.6533 4.69 24.4887 4.69 24.298V7.502C4.69 7.31133 4.75933 7.14667 4.898 7.008C5.03667 6.86933 5.20133 6.8 5.392 6.8H9.5C9.98533 6.8 10.358 7.034 10.618 7.502L14.388 13.742L18.158 7.502C18.418 7.034 18.7907 6.8 19.276 6.8ZM61.7354 6.8H66.5714C66.7274 6.8 66.8574 6.86067 66.9614 6.982C67.0828 7.086 67.1434 7.19 67.1434 7.294C67.1434 7.398 67.1348 7.48467 67.1174 7.554L62.2294 24.142C62.0734 24.714 61.6834 25 61.0594 25H55.1314C54.5074 25 54.1174 24.714 53.9614 24.142L49.0734 7.554C49.0561 7.48467 49.0474 7.398 49.0474 7.294C49.0474 7.19 49.0994 7.086 49.2034 6.982C49.3248 6.86067 49.4634 6.8 49.6194 6.8H54.4554C55.0794 6.8 55.4694 7.086 55.6254 7.658L58.0954 17.33L60.5654 7.658C60.7214 7.086 61.1114 6.8 61.7354 6.8ZM75.4787 25H70.8247C70.634 25 70.4693 24.9307 70.3307 24.792C70.192 24.6533 70.1227 24.4887 70.1227 24.298V12.182C70.1227 11.9913 70.192 11.8267 70.3307 11.688C70.4693 11.5493 70.634 11.48 70.8247 11.48H75.4787C75.6693 11.48 75.834 11.5493 75.9727 11.688C76.1113 11.8267 76.1807 11.9913 76.1807 12.182V24.298C76.1807 24.4887 76.1113 24.6533 75.9727 24.792C75.834 24.9307 75.6693 25 75.4787 25ZM76.0507 6.462V9.608C76.0507 9.79867 75.9813 9.96333 75.8427 10.102C75.704 10.2407 75.5393 10.31 75.3487 10.31H70.9547C70.764 10.31 70.5993 10.2407 70.4607 10.102C70.322 9.96333 70.2527 9.79867 70.2527 9.608V6.462C70.2527 6.27133 70.322 6.10667 70.4607 5.968C70.5993 5.82933 70.764 5.76 70.9547 5.76H75.3487C75.5393 5.76 75.704 5.82933 75.8427 5.968C75.9813 6.10667 76.0507 6.27133 76.0507 6.462ZM86.7109 19.93H94.7189C94.9095 19.93 95.0742 19.9993 95.2129 20.138C95.3515 20.2767 95.4209 20.4413 95.4209 20.632V24.298C95.4209 24.4887 95.3515 24.6533 95.2129 24.792C95.0742 24.9307 94.9095 25 94.7189 25H81.1729C80.9822 25 80.8175 24.9307 80.6789 24.792C80.5402 24.6533 80.4709 24.4887 80.4709 24.298V7.502C80.4709 7.31133 80.5402 7.14667 80.6789 7.008C80.8175 6.86933 80.9822 6.8 81.1729 6.8H94.5109C94.7015 6.8 94.8662 6.86933 95.0049 7.008C95.1435 7.14667 95.2129 7.31133 95.2129 7.502V11.168C95.2129 11.3587 95.1435 11.5233 95.0049 11.662C94.8662 11.8007 94.7015 11.87 94.5109 11.87H86.7109V13.508H93.9389C94.1295 13.508 94.2942 13.5773 94.4329 13.716C94.5715 13.8547 94.6409 14.0193 94.6409 14.21V17.59C94.6409 17.7807 94.5715 17.9453 94.4329 18.084C94.2942 18.2227 94.1295 18.292 93.9389 18.292H86.7109V19.93ZM114.773 17.122V24.298C114.773 24.4887 114.704 24.6533 114.565 24.792C114.426 24.9307 114.262 25 114.071 25H109.105C108.914 25 108.75 24.9307 108.611 24.792C108.472 24.6533 108.403 24.4887 108.403 24.298V17.304C108.403 16.3507 107.97 15.874 107.103 15.874C106.236 15.874 105.803 16.3507 105.803 17.304V24.298C105.803 24.4887 105.734 24.6533 105.595 24.792C105.456 24.9307 105.292 25 105.101 25H100.161C99.9703 25 99.8056 24.9307 99.667 24.792C99.5283 24.6533 99.459 24.4887 99.459 24.298V12.182C99.459 11.9913 99.5283 11.8267 99.667 11.688C99.8056 11.5493 99.9703 11.48 100.161 11.48H104.711C104.902 11.48 105.066 11.5493 105.205 11.688C105.344 11.8267 105.413 11.9913 105.413 12.182V13.04C105.864 12.5027 106.47 12.0693 107.233 11.74C108.013 11.3933 108.845 11.22 109.729 11.22C111.15 11.22 112.346 11.7227 113.317 12.728C114.288 13.716 114.773 15.1807 114.773 17.122ZM118.142 18.526V17.2C118.142 15.2587 118.662 13.7767 119.702 12.754C120.742 11.7313 122.068 11.22 123.68 11.22C125.292 11.22 126.566 11.8093 127.502 12.988V12.182C127.502 11.9913 127.572 11.8267 127.71 11.688C127.849 11.5493 128.014 11.48 128.204 11.48H132.754C132.945 11.48 133.11 11.5493 133.248 11.688C133.387 11.8267 133.456 11.9913 133.456 12.182L133.482 24.558C133.482 26.638 132.806 28.1807 131.454 29.186C130.102 30.2087 128.326 30.72 126.124 30.72C124.755 30.72 123.533 30.5293 122.458 30.148C121.384 29.784 120.578 29.3333 120.04 28.796C118.948 27.7213 118.402 26.8113 118.402 26.066C118.402 25.8753 118.472 25.7107 118.61 25.572C118.749 25.4333 118.914 25.364 119.104 25.364H124.174C124.486 25.364 124.738 25.5547 124.928 25.936C125.136 26.3347 125.492 26.534 125.994 26.534C126.74 26.534 127.112 26.066 127.112 25.13V23.284C126.263 24.0293 125.058 24.402 123.498 24.402C121.956 24.402 120.673 23.934 119.65 22.998C118.645 22.062 118.142 20.5713 118.142 18.526ZM125.812 19.878C126.627 19.878 127.06 19.4447 127.112 18.578V17.174C127.06 16.3073 126.627 15.874 125.812 15.874C124.946 15.874 124.512 16.3767 124.512 17.382V18.37C124.512 19.3753 124.946 19.878 125.812 19.878Z" fill="black"/>
</g>
<path d="M42.7944 24.5162C46.0366 22.6829 48.2075 19.3312 48.2075 15.5C48.2075 9.70127 43.2365 5 37.1041 5C30.971 5 26 9.70127 26 15.5C26 21.2987 30.971 26 37.1041 26H48V24.5162L42.7944 24.5162ZM41.5642 10.411C42.7149 9.78283 44.1856 10.1554 44.8499 11.2436C45.5142 12.3317 45.1202 13.7231 43.9695 14.3512C42.8187 14.9787 41.3481 14.6061 40.6838 13.5187C40.0187 12.4299 40.4135 11.0392 41.5642 10.411ZM40.683 17.4264C41.3481 16.3383 42.8188 15.9658 43.9695 16.5939C45.1203 17.2228 45.5142 18.6135 44.85 19.7016C44.1857 20.7897 42.7149 21.1623 41.5635 20.5341C40.4135 19.9059 40.0187 18.5145 40.683 17.4264ZM37.1041 7.01452C38.4328 7.01452 39.5094 8.03259 39.5094 9.28897C39.5094 10.5454 38.4328 11.5649 37.1041 11.5649C35.7755 11.5649 34.6973 10.5453 34.6973 9.28897C34.6973 8.03264 35.7755 7.01452 37.1041 7.01452ZM38.2144 15.5C38.2144 16.0805 37.7173 16.5499 37.1041 16.5499C36.4902 16.5499 35.9938 16.0805 35.9938 15.5C35.9938 14.9195 36.4902 14.4501 37.1041 14.4501C37.7173 14.4501 38.2144 14.9195 38.2144 15.5ZM29.3575 11.2436C30.0218 10.1554 31.4932 9.78288 32.644 10.411C33.7947 11.0392 34.1887 12.4299 33.5244 13.5187C32.8601 14.6061 31.3887 14.9794 30.2379 14.3512C29.088 13.7231 28.6932 12.3317 29.3575 11.2436ZM32.6448 20.5341C31.4932 21.1623 30.0226 20.7897 29.3575 19.7016C28.6939 18.6135 29.0879 17.2221 30.2379 16.5932C31.3887 15.965 32.8601 16.3383 33.5244 17.4264C34.1888 18.5145 33.7947 19.9059 32.6448 20.5341ZM34.6973 21.6554C34.6973 20.399 35.7755 19.3803 37.1041 19.3803C38.4327 19.3803 39.5094 20.3991 39.5094 21.6554C39.5094 22.9118 38.4328 23.9306 37.1041 23.9306C35.7755 23.9306 34.6973 22.9118 34.6973 21.6554Z" fill="black"/>
<defs>
<filter id="filter0_d" x="0.689941" y="5.76001" width="136.792" height="32.96" filterUnits="userSpaceOnUse" color-interpolation-filters="sRGB">
<feFlood flood-opacity="0" result="BackgroundImageFix"/>
<feColorMatrix in="SourceAlpha" type="matrix" values="0 0 0 0 0 0 0 0 0 0 0 0 0 0 0 0 0 0 127 0"/>
<feOffset dy="4"/>
<feGaussianBlur stdDeviation="2"/>
<feColorMatrix type="matrix" values="0 0 0 0 1 0 0 0 0 1 0 0 0 0 1 0 0 0 0.25 0"/>
<feBlend mode="normal" in2="BackgroundImageFix" result="effect1_dropShadow"/>
<feBlend mode="normal" in="SourceGraphic" in2="effect1_dropShadow" result="shape"/>
</filter>
</defs>
</svg>
