<?xml version="1.0" encoding="utf-8"?>
<!-- Generator: Adobe Illustrator 23.0.0, SVG Export Plug-In . SVG Version: 6.00 Build 0)  -->
<svg version="1.1" id="レイヤー_1" xmlns="http://www.w3.org/2000/svg" xmlns:xlink="http://www.w3.org/1999/xlink" x="0px"
	 y="0px" viewBox="0 0 139 27.1" style="enable-background:new 0 0 139 27.1;" xml:space="preserve">
<g>
	<path d="M19.3,2.5h4.1c0.2,0,0.4,0.1,0.5,0.2s0.2,0.3,0.2,0.5V20c0,0.2-0.1,0.4-0.2,0.5s-0.3,0.2-0.5,0.2h-4.7
		c-0.2,0-0.4-0.1-0.5-0.2S18,20.2,18,20v-7.1l-1.7,2.8c-0.3,0.4-0.6,0.6-1,0.6h-1.8c-0.4,0-0.7-0.2-1-0.6l-1.7-2.8V20
		c0,0.2-0.1,0.4-0.2,0.5s-0.3,0.2-0.5,0.2H5.4c-0.2,0-0.4-0.1-0.5-0.2c-0.1-0.1-0.2-0.3-0.2-0.5V3.2c0-0.2,0.1-0.4,0.2-0.5
		C5,2.6,5.2,2.5,5.4,2.5h4.1c0.5,0,0.9,0.2,1.1,0.7l3.8,6.2l3.8-6.2C18.4,2.7,18.8,2.5,19.3,2.5z M61.7,2.5h4.8
		c0.2,0,0.3,0.1,0.4,0.2c0.1,0.1,0.2,0.2,0.2,0.3c0,0.1,0,0.2,0,0.3l-4.9,16.6c-0.2,0.6-0.5,0.9-1.2,0.9h-5.9c-0.6,0-1-0.3-1.2-0.9
		L49.1,3.3c0-0.1,0-0.2,0-0.3c0-0.1,0.1-0.2,0.2-0.3c0.1-0.1,0.3-0.2,0.4-0.2h4.8c0.6,0,1,0.3,1.2,0.9l2.5,9.7l2.5-9.7
		C60.7,2.8,61.1,2.5,61.7,2.5z M75.5,20.7h-4.7c-0.2,0-0.4-0.1-0.5-0.2c-0.1-0.1-0.2-0.3-0.2-0.5V7.9c0-0.2,0.1-0.4,0.2-0.5
		c0.1-0.1,0.3-0.2,0.5-0.2h4.7c0.2,0,0.4,0.1,0.5,0.2c0.1,0.1,0.2,0.3,0.2,0.5V20c0,0.2-0.1,0.4-0.2,0.5
		C75.8,20.6,75.7,20.7,75.5,20.7z M76.1,2.2v3.1c0,0.2-0.1,0.4-0.2,0.5C75.7,5.9,75.5,6,75.3,6H71c-0.2,0-0.4-0.1-0.5-0.2
		c-0.1-0.1-0.2-0.3-0.2-0.5V2.2c0-0.2,0.1-0.4,0.2-0.5c0.1-0.1,0.3-0.2,0.5-0.2h4.4c0.2,0,0.4,0.1,0.5,0.2C76,1.8,76.1,2,76.1,2.2z
		 M86.7,15.6h8c0.2,0,0.4,0.1,0.5,0.2c0.1,0.1,0.2,0.3,0.2,0.5V20c0,0.2-0.1,0.4-0.2,0.5c-0.1,0.1-0.3,0.2-0.5,0.2H81.2
		c-0.2,0-0.4-0.1-0.5-0.2c-0.1-0.1-0.2-0.3-0.2-0.5V3.2c0-0.2,0.1-0.4,0.2-0.5c0.1-0.1,0.3-0.2,0.5-0.2h13.3c0.2,0,0.4,0.1,0.5,0.2
		c0.1,0.1,0.2,0.3,0.2,0.5v3.7c0,0.2-0.1,0.4-0.2,0.5c-0.1,0.1-0.3,0.2-0.5,0.2h-7.8v1.6h7.2c0.2,0,0.4,0.1,0.5,0.2
		c0.1,0.1,0.2,0.3,0.2,0.5v3.4c0,0.2-0.1,0.4-0.2,0.5c-0.1,0.1-0.3,0.2-0.5,0.2h-7.2V15.6z M114.8,12.8V20c0,0.2-0.1,0.4-0.2,0.5
		s-0.3,0.2-0.5,0.2h-5c-0.2,0-0.4-0.1-0.5-0.2s-0.2-0.3-0.2-0.5v-7c0-1-0.4-1.4-1.3-1.4c-0.9,0-1.3,0.5-1.3,1.4v7
		c0,0.2-0.1,0.4-0.2,0.5s-0.3,0.2-0.5,0.2h-4.9c-0.2,0-0.4-0.1-0.5-0.2c-0.1-0.1-0.2-0.3-0.2-0.5V7.9c0-0.2,0.1-0.4,0.2-0.5
		c0.1-0.1,0.3-0.2,0.5-0.2h4.5c0.2,0,0.4,0.1,0.5,0.2c0.1,0.1,0.2,0.3,0.2,0.5v0.9c0.5-0.5,1.1-1,1.8-1.3c0.8-0.3,1.6-0.5,2.5-0.5
		c1.4,0,2.6,0.5,3.6,1.5C114.3,9.4,114.8,10.9,114.8,12.8z M118.1,14.2v-1.3c0-1.9,0.5-3.4,1.6-4.4c1-1,2.4-1.5,4-1.5
		s2.9,0.6,3.8,1.8V7.9c0-0.2,0.1-0.4,0.2-0.5c0.1-0.1,0.3-0.2,0.5-0.2h4.6c0.2,0,0.4,0.1,0.5,0.2c0.1,0.1,0.2,0.3,0.2,0.5l0,12.4
		c0,2.1-0.7,3.6-2,4.6c-1.4,1-3.1,1.5-5.3,1.5c-1.4,0-2.6-0.2-3.7-0.6c-1.1-0.4-1.9-0.8-2.4-1.4c-1.1-1.1-1.6-2-1.6-2.7
		c0-0.2,0.1-0.4,0.2-0.5c0.1-0.1,0.3-0.2,0.5-0.2h5.1c0.3,0,0.6,0.2,0.8,0.6c0.2,0.4,0.6,0.6,1.1,0.6c0.7,0,1.1-0.5,1.1-1.4V19
		c-0.8,0.7-2.1,1.1-3.6,1.1c-1.5,0-2.8-0.5-3.8-1.4C118.6,17.8,118.1,16.3,118.1,14.2z M125.8,15.6c0.8,0,1.2-0.4,1.3-1.3v-1.4
		c-0.1-0.9-0.5-1.3-1.3-1.3c-0.9,0-1.3,0.5-1.3,1.5v1C124.5,15.1,124.9,15.6,125.8,15.6z"/>
</g>
<path d="M42.8,20.2c3.2-1.8,5.4-5.2,5.4-9c0-5.8-5-10.5-11.1-10.5C31,0.7,26,5.4,26,11.2c0,5.8,5,10.5,11.1,10.5H48v-1.5H42.8z
	 M41.6,6.1c1.2-0.6,2.6-0.3,3.3,0.8c0.7,1.1,0.3,2.5-0.9,3.1c-1.2,0.6-2.6,0.3-3.3-0.8C40,8.1,40.4,6.7,41.6,6.1z M40.7,13.1
	c0.7-1.1,2.1-1.5,3.3-0.8c1.2,0.6,1.5,2,0.9,3.1c-0.7,1.1-2.1,1.5-3.3,0.8C40.4,15.6,40,14.2,40.7,13.1z M37.1,2.7
	c1.3,0,2.4,1,2.4,2.3c0,1.3-1.1,2.3-2.4,2.3c-1.3,0-2.4-1-2.4-2.3S35.8,2.7,37.1,2.7z M38.2,11.2c0,0.6-0.5,1-1.1,1
	c-0.6,0-1.1-0.5-1.1-1s0.5-1,1.1-1C37.7,10.2,38.2,10.6,38.2,11.2z M29.4,6.9c0.7-1.1,2.1-1.5,3.3-0.8c1.2,0.6,1.5,2,0.9,3.1
	c-0.7,1.1-2.1,1.5-3.3,0.8C29.1,9.4,28.7,8,29.4,6.9z M32.6,16.2c-1.2,0.6-2.6,0.3-3.3-0.8c-0.7-1.1-0.3-2.5,0.9-3.1
	c1.2-0.6,2.6-0.3,3.3,0.8C34.2,14.2,33.8,15.6,32.6,16.2z M34.7,17.4c0-1.3,1.1-2.3,2.4-2.3c1.3,0,2.4,1,2.4,2.3
	c0,1.3-1.1,2.3-2.4,2.3C35.8,19.6,34.7,18.6,34.7,17.4z"/>
</svg>
