<svg width="107" height="117" viewBox="0 0 107 117" fill="none" xmlns="http://www.w3.org/2000/svg">
<path d="M69.4325 19.5026L82.5074 22.9725C82.8484 23.0421 83.1255 23.3207 83.2039 23.6638L86.651 36.7387C86.7439 37.1226 87.0815 37.3924 87.4742 37.3924C87.8708 37.3924 88.2047 37.1226 88.2939 36.7387L91.7461 23.6638C91.8193 23.321 92.098 23.0421 92.439 22.9725L105.516 19.5026C105.898 19.4309 106.17 19.0899 106.17 18.697C106.17 18.3004 105.898 17.9665 105.516 17.8898L92.439 14.4215C92.098 14.3485 91.8193 14.0732 91.7461 13.7304L88.2939 0.655482C88.2045 0.275026 87.8705 0 87.4742 0C87.0815 0 86.7437 0.275026 86.651 0.655482L83.2039 13.7304C83.1255 14.0732 82.8487 14.3485 82.5074 14.4215L69.4325 17.8898C69.0466 17.9667 68.7788 18.3007 68.7788 18.697C68.7788 19.0899 69.0468 19.4311 69.4325 19.5026Z" fill="black"/>
<path d="M82.8052 74.0348L76.8703 72.4615C76.715 72.4257 76.5882 72.3042 76.5542 72.1473L74.9898 66.2126C74.9487 66.0394 74.7968 65.916 74.6166 65.916C74.4397 65.916 74.2862 66.0394 74.2434 66.2126L72.6789 72.1473C72.6431 72.3044 72.5182 72.4257 72.3629 72.4615L66.43 74.0348C66.2549 74.0688 66.1316 74.2226 66.1316 74.401C66.1316 74.5797 66.2549 74.7334 66.43 74.769L72.3629 76.3407C72.5182 76.3727 72.6431 76.5014 72.6789 76.6586L74.2434 82.5897C74.2862 82.7629 74.4397 82.8862 74.6166 82.8862C74.7971 82.8862 74.9487 82.7629 74.9898 82.5897L76.5542 76.6586C76.5882 76.5014 76.715 76.3727 76.8703 76.3407L82.8052 74.769C82.9766 74.7334 83.1018 74.5797 83.1018 74.401C83.1016 74.2223 82.9766 74.0688 82.8052 74.0348Z" fill="black"/>
<path d="M4.03571 31.7592L13.378 34.2344C13.6242 34.2863 13.8192 34.4847 13.8779 34.731L16.3389 44.0732C16.4067 44.3501 16.6479 44.5412 16.9284 44.5412C17.2104 44.5412 17.4498 44.3501 17.5161 44.0732L19.9788 34.731C20.0307 34.4847 20.2325 34.2863 20.4772 34.2344L29.8212 31.7592C30.0945 31.702 30.289 31.4556 30.289 31.1769C30.289 30.8983 30.0945 30.6591 29.8212 30.6019L20.4772 28.1229C20.2325 28.0693 20.0307 27.8766 19.9788 27.6299L17.5161 18.2825C17.4498 18.0108 17.2106 17.8181 16.9284 17.8181C16.6481 17.8181 16.4069 18.0108 16.3389 18.2825L13.8779 27.6302C13.819 27.8766 13.6242 28.0693 13.378 28.1231L4.03571 30.6022C3.75705 30.6593 3.56592 30.8985 3.56592 31.1772C3.56592 31.4556 3.75705 31.7023 4.03571 31.7592Z" fill="black"/>
<path d="M85.3757 62.782C83.5897 60.6924 81.0376 58.8387 77.8908 57.2849H77.8944C71.6185 54.1773 63.0122 52.2755 53.5019 52.27L53.4752 52.2716V52.27C47.2296 52.2716 41.3681 53.0915 36.3014 54.5346C31.2346 55.9778 26.97 58.0351 23.898 60.5355L23.9032 60.5319C21.8513 62.2 20.3422 64.061 19.5046 66.0846C19.0257 67.233 18.7741 68.4437 18.7759 69.6706C18.7759 70.6797 19.5939 71.4994 20.6047 71.4994C21.6157 71.4994 22.4335 70.6797 22.4335 69.6706C22.4353 68.933 22.5748 68.2313 22.8836 67.481C23.4175 66.1809 24.5088 64.7487 26.2073 63.3733L26.2125 63.3697C28.7414 61.298 32.6027 59.3835 37.3033 58.053C42.0039 56.7117 47.5511 55.9277 53.4752 55.9295H53.5715C62.5567 55.9313 70.6737 57.7762 76.2674 60.5623L76.2728 60.5641C79.0802 61.9465 81.2466 63.5715 82.595 65.1575C83.2739 65.9524 83.7559 66.7328 84.0649 67.481C84.4508 68.4151 85.5187 68.8582 86.4529 68.4723C87.387 68.0866 87.8298 67.0185 87.4441 66.0846C86.9669 64.9305 86.2706 63.825 85.3757 62.782Z" fill="black"/>
<path d="M105.628 61.664C104.857 59.8029 103.801 58.0725 102.528 56.4741C101.255 54.8774 99.7652 53.4093 98.1076 52.0591L98.006 51.9771L98.1042 52.0591C93.1249 48.0122 86.5721 44.9189 78.9821 42.7473H78.9802C71.3829 40.5881 62.7156 39.3826 53.5001 39.3826C46.4778 39.3826 39.7767 40.0827 33.6225 41.3703C27.4681 42.6582 21.8604 44.5332 17.0239 46.9228L17.0203 46.9246C12.1893 49.3214 8.08164 52.2396 5.033 55.7989L5.08832 55.7308L5.03118 55.7989C3.50959 57.5814 2.25236 59.537 1.37173 61.664C0.489518 63.7928 -0.00158329 66.0877 3.83494e-06 68.4505V87.0137C-0.00158329 89.3785 0.489518 91.6751 1.37173 93.8039C2.1433 95.6649 3.19896 97.3935 4.47229 98.992C5.74743 100.59 7.23502 102.057 8.8922 103.407L8.89583 103.409C13.8751 107.452 20.4258 110.552 28.0161 112.72L28.0569 112.729C35.6461 114.882 44.2989 116.086 53.5001 116.087H53.5019C60.5225 116.086 67.2233 115.385 73.3777 114.098C79.5321 112.81 85.1399 110.933 89.9763 108.545L89.9797 108.542C94.8107 106.145 98.9166 103.225 101.967 99.669L101.969 99.6656C103.49 97.8866 104.746 95.9331 105.626 93.8041L105.571 93.9345L105.628 93.8041C106.509 91.6751 107 89.3785 107 87.0139V68.4507C107 66.0877 106.509 63.7928 105.628 61.664ZM11.9714 96.6811C11.4089 96.1508 10.8838 95.6114 10.4161 95.0666C9.30689 93.7665 8.47456 92.436 7.91907 91.0965C7.36358 89.7536 7.08515 88.4015 7.08515 87.0139V78.5986C8.16915 79.9363 9.44973 81.199 10.8981 82.3814C11.2466 82.6616 11.6037 82.9387 11.9714 83.2137V96.6811ZM22.2299 103.148C21.5246 102.841 20.8299 102.526 20.1635 102.195C18.6115 101.427 17.1827 100.607 15.8792 99.7515V85.7676C17.8241 86.8838 19.9492 87.907 22.2299 88.8287V103.148ZM34.9333 107.133C31.715 106.452 28.695 105.6 25.9107 104.605H26.1411V90.2555C27.0357 90.5519 27.9538 90.8323 28.8895 91.1003C30.8256 91.6504 32.8473 92.1324 34.9333 92.5523V107.133ZM51.5446 108.981C47.119 108.892 42.8648 108.488 38.8428 107.838V93.2362C42.8879 93.861 47.1421 94.2272 51.5446 94.3131V108.981ZM68.6467 107.75C64.4819 108.445 60.0636 108.881 55.4557 108.97V94.3217C60.0348 94.2324 64.4587 93.8343 68.6467 93.1697V107.75ZM81.3503 104.516C79.9715 105.016 78.5356 105.481 77.0406 105.905C75.5976 106.316 74.0939 106.682 72.5544 107.018V92.4555C75.6496 91.8161 78.5928 91.0196 81.3503 90.0891V104.516ZM91.6103 99.4189C89.7602 100.687 87.6312 101.866 85.2578 102.937V88.6247C86.4007 88.1512 87.5099 87.6547 88.569 87.1316C89.628 86.6047 90.6406 86.0528 91.6103 85.4812V99.4189ZM99.9151 87.0137C99.9151 88.4013 99.6367 89.7536 99.0793 91.0963C98.3649 92.8321 97.1666 94.5594 95.5181 96.215V83.0096H95.2859C96.9075 81.7719 98.3452 80.4521 99.5544 79.0396C99.6775 78.8949 99.7954 78.7484 99.9149 78.602V87.0137H99.9151ZM99.0793 72.5299C98.1151 74.8729 96.2754 77.1983 93.6323 79.3504C89.6763 82.5793 83.9382 85.3799 77.0408 87.3389C70.1454 89.3035 62.0942 90.4376 53.5003 90.4376C40.4075 90.443 28.5648 87.7944 20.1637 83.6277C15.9633 81.5508 12.6342 79.1006 10.4161 76.4984C9.30689 75.1999 8.47456 73.8694 7.91907 72.5301C7.36358 71.1869 7.08515 69.8367 7.08515 68.451C7.08515 67.0652 7.36358 65.715 7.91907 64.3718C8.88721 62.027 10.7231 59.7016 13.3681 57.5531C17.3259 54.3222 23.0623 51.5202 29.9597 49.561C36.8553 47.5984 44.9081 46.4659 53.5003 46.4659C66.5932 46.4586 78.4338 49.1091 86.8351 53.274C91.0374 55.3493 94.3681 57.8032 96.5828 60.4015C97.6936 61.7 98.5259 63.0305 99.0796 64.3716C99.6369 65.7148 99.9153 67.0647 99.9153 68.4507C99.9153 69.8367 99.6367 71.1867 99.0793 72.5299Z" fill="black"/>
</svg>
