<svg width="16" height="14" viewBox="0 0 16 14" fill="none" xmlns="http://www.w3.org/2000/svg">
<path d="M11.8947 0.00616126C9.45747 0.0530988 8.26469 1.77794 8 3.34613C7.73531 1.77794 6.54256 0.0530675 4.10531 0.00616126C1.85819 -0.0370262 0 1.69154 0 4.84616C0 8.89579 4.58069 10.7665 7.71303 13.7915C7.82206 13.8968 7.79641 13.8941 7.79641 13.8941C7.84788 13.9576 7.92184 13.9943 7.99966 13.9943V13.9947C7.99966 13.9947 7.99984 13.9947 8 13.9947C8 13.9947 8.00019 13.9947 8.00034 13.9947V13.9943C8.07812 13.9943 8.15209 13.9576 8.20356 13.8941C8.20356 13.8941 8.17791 13.8968 8.28697 13.7915C11.4193 10.7665 16 8.89579 16 4.84616C16 1.69154 14.1418 -0.0370262 11.8947 0.00616126Z" fill="#ED4747"/>
</svg>
