<?xml version="1.0" encoding="UTF-8" standalone="no"?>
<!DOCTYPE svg PUBLIC "-//W3C//DTD SVG 1.1//EN" "http://www.w3.org/Graphics/SVG/1.1/DTD/svg11.dtd">
<svg width="100%" height="100%" viewBox="0 0 86 100" version="1.1" xmlns="http://www.w3.org/2000/svg" xmlns:xlink="http://www.w3.org/1999/xlink" xml:space="preserve" xmlns:serif="http://www.serif.com/" style="fill-rule:evenodd;clip-rule:evenodd;stroke-linejoin:round;stroke-miterlimit:2;">
    <g transform="matrix(1,0,0,1,-400,-239)">
        <g transform="matrix(4.7619,0,0,4.7619,-1428.57,-1589.57)">
            <path d="M402,384.9C402,384.403 401.597,384 401.1,384L384.9,384C384.403,384 384,384.403 384,384.9L384,404.1C384,404.597 384.403,405 384.9,405L401.1,405C401.597,405 402,404.597 402,404.1L402,384.9ZM388.545,399.5C388.545,399.224 388.321,399 388.045,399L387.545,399C387.269,399 387.045,399.224 387.045,399.5L387.045,400C387.045,400.276 387.269,400.5 387.545,400.5L388.045,400.5C388.321,400.5 388.545,400.276 388.545,400L388.545,399.5ZM399.455,399.5C399.455,399.224 399.231,399 398.955,399C397.448,399 392.962,399 391.455,399C391.179,399 390.955,399.224 390.955,399.5C390.955,399.661 390.955,399.839 390.955,400C390.955,400.276 391.179,400.5 391.455,400.5C392.962,400.5 397.448,400.5 398.955,400.5C399.231,400.5 399.455,400.276 399.455,400C399.455,399.839 399.455,399.661 399.455,399.5ZM388.545,394.25C388.545,393.974 388.321,393.75 388.045,393.75L387.545,393.75C387.269,393.75 387.045,393.974 387.045,394.25L387.045,394.75C387.045,395.026 387.269,395.25 387.545,395.25L388.045,395.25C388.321,395.25 388.545,395.026 388.545,394.75L388.545,394.25ZM399.455,394.25C399.455,393.974 399.231,393.75 398.955,393.75C397.448,393.75 392.962,393.75 391.455,393.75C391.179,393.75 390.955,393.974 390.955,394.25C390.955,394.411 390.955,394.589 390.955,394.75C390.955,395.026 391.179,395.25 391.455,395.25C392.962,395.25 397.448,395.25 398.955,395.25C399.231,395.25 399.455,395.026 399.455,394.75C399.455,394.589 399.455,394.411 399.455,394.25ZM388.545,389.1C388.545,388.824 388.321,388.6 388.045,388.6L387.545,388.6C387.269,388.6 387.045,388.824 387.045,389.1L387.045,389.6C387.045,389.876 387.269,390.1 387.545,390.1L388.045,390.1C388.321,390.1 388.545,389.876 388.545,389.6L388.545,389.1ZM399.455,389.1C399.455,388.824 399.231,388.6 398.955,388.6C397.448,388.6 392.962,388.6 391.455,388.6C391.179,388.6 390.955,388.824 390.955,389.1C390.955,389.261 390.955,389.439 390.955,389.6C390.955,389.876 391.179,390.1 391.455,390.1C392.962,390.1 397.448,390.1 398.955,390.1C399.231,390.1 399.455,389.876 399.455,389.6C399.455,389.439 399.455,389.261 399.455,389.1Z" style="fill:rgb(51,51,51);"/>
            <path d="M402,384.9C402,384.403 401.597,384 401.1,384L384.9,384C384.403,384 384,384.403 384,384.9L384,404.1C384,404.597 384.403,405 384.9,405L401.1,405C401.597,405 402,404.597 402,404.1L402,384.9ZM385.05,385.05L385.05,403.95L400.95,403.95L400.95,385.05L385.05,385.05ZM389.595,399.5C389.595,398.644 388.901,397.95 388.045,397.95C387.884,397.95 387.706,397.95 387.545,397.95C386.689,397.95 385.995,398.644 385.995,399.5C385.995,399.661 385.995,399.839 385.995,400C385.995,400.856 386.689,401.55 387.545,401.55C387.706,401.55 387.884,401.55 388.045,401.55C388.901,401.55 389.595,400.856 389.595,400L389.595,399.5ZM400.505,399.5C400.505,398.644 399.811,397.95 398.955,397.95C397.448,397.95 392.962,397.95 391.455,397.95C390.599,397.95 389.905,398.644 389.905,399.5C389.905,399.661 389.905,399.839 389.905,400C389.905,400.856 390.599,401.55 391.455,401.55C392.962,401.55 397.448,401.55 398.955,401.55C399.811,401.55 400.505,400.856 400.505,400L400.505,399.5ZM388.545,399.5C388.545,399.224 388.321,399 388.045,399L387.545,399C387.269,399 387.045,399.224 387.045,399.5L387.045,400C387.045,400.276 387.269,400.5 387.545,400.5L388.045,400.5C388.321,400.5 388.545,400.276 388.545,400L388.545,399.5ZM399.455,399.5C399.455,399.224 399.231,399 398.955,399C397.448,399 392.962,399 391.455,399C391.179,399 390.955,399.224 390.955,399.5C390.955,399.661 390.955,399.839 390.955,400C390.955,400.276 391.179,400.5 391.455,400.5C392.962,400.5 397.448,400.5 398.955,400.5C399.231,400.5 399.455,400.276 399.455,400C399.455,399.839 399.455,399.661 399.455,399.5ZM389.595,394.25C389.595,393.394 388.901,392.7 388.045,392.7C387.884,392.7 387.706,392.7 387.545,392.7C386.689,392.7 385.995,393.394 385.995,394.25C385.995,394.411 385.995,394.589 385.995,394.75C385.995,395.606 386.689,396.3 387.545,396.3C387.706,396.3 387.884,396.3 388.045,396.3C388.901,396.3 389.595,395.606 389.595,394.75L389.595,394.25ZM400.505,394.25C400.505,393.394 399.811,392.7 398.955,392.7C397.448,392.7 392.962,392.7 391.455,392.7C390.599,392.7 389.905,393.394 389.905,394.25C389.905,394.411 389.905,394.589 389.905,394.75C389.905,395.606 390.599,396.3 391.455,396.3C392.962,396.3 397.448,396.3 398.955,396.3C399.811,396.3 400.505,395.606 400.505,394.75L400.505,394.25ZM388.545,394.25C388.545,393.974 388.321,393.75 388.045,393.75L387.545,393.75C387.269,393.75 387.045,393.974 387.045,394.25L387.045,394.75C387.045,395.026 387.269,395.25 387.545,395.25L388.045,395.25C388.321,395.25 388.545,395.026 388.545,394.75L388.545,394.25ZM399.455,394.25C399.455,393.974 399.231,393.75 398.955,393.75C397.448,393.75 392.962,393.75 391.455,393.75C391.179,393.75 390.955,393.974 390.955,394.25C390.955,394.411 390.955,394.589 390.955,394.75C390.955,395.026 391.179,395.25 391.455,395.25C392.962,395.25 397.448,395.25 398.955,395.25C399.231,395.25 399.455,395.026 399.455,394.75C399.455,394.589 399.455,394.411 399.455,394.25ZM389.595,389.1C389.595,388.244 388.901,387.55 388.045,387.55C387.884,387.55 387.706,387.55 387.545,387.55C386.689,387.55 385.995,388.244 385.995,389.1C385.995,389.261 385.995,389.439 385.995,389.6C385.995,390.456 386.689,391.15 387.545,391.15C387.706,391.15 387.884,391.15 388.045,391.15C388.901,391.15 389.595,390.456 389.595,389.6L389.595,389.1ZM400.505,389.1C400.505,388.244 399.811,387.55 398.955,387.55C397.448,387.55 392.962,387.55 391.455,387.55C390.599,387.55 389.905,388.244 389.905,389.1C389.905,389.261 389.905,389.439 389.905,389.6C389.905,390.456 390.599,391.15 391.455,391.15C392.962,391.15 397.448,391.15 398.955,391.15C399.811,391.15 400.505,390.456 400.505,389.6L400.505,389.1ZM388.545,389.1C388.545,388.824 388.321,388.6 388.045,388.6L387.545,388.6C387.269,388.6 387.045,388.824 387.045,389.1L387.045,389.6C387.045,389.876 387.269,390.1 387.545,390.1L388.045,390.1C388.321,390.1 388.545,389.876 388.545,389.6L388.545,389.1ZM399.455,389.1C399.455,388.824 399.231,388.6 398.955,388.6C397.448,388.6 392.962,388.6 391.455,388.6C391.179,388.6 390.955,388.824 390.955,389.1C390.955,389.261 390.955,389.439 390.955,389.6C390.955,389.876 391.179,390.1 391.455,390.1C392.962,390.1 397.448,390.1 398.955,390.1C399.231,390.1 399.455,389.876 399.455,389.6C399.455,389.439 399.455,389.261 399.455,389.1Z" style="fill:rgb(51,51,51);"/>
        </g>
    </g>
</svg>
