<svg width="24" height="24" viewBox="0 0 24 24" fill="none" xmlns="http://www.w3.org/2000/svg">
<path d="M15.1431 20.3647H2.81334V2.81358H15.1436C15.4169 2.81358 15.6387 2.59176 15.6387 2.31845V0.495131C15.6387 0.221819 15.4169 0 15.1436 0H0.495131C0.221819 0 0 0.221819 0 0.495131V22.6827C0 22.956 0.221819 23.1778 0.495131 23.1778H15.1431C15.4167 23.1778 15.6382 22.956 15.6382 22.6827V20.8599C15.6382 20.5861 15.4169 20.3647 15.1431 20.3647Z" fill="current"/>
<path d="M23.8542 11.2389L17.1893 4.57441C17.0036 4.38849 16.6748 4.38873 16.4892 4.57441L14.9079 6.15586C14.7146 6.3492 14.7146 6.66262 14.9079 6.85597L17.9183 9.86686H4.88624C4.61293 9.86686 4.39111 10.0887 4.39111 10.362V12.8159C4.39111 13.0892 4.61293 13.311 4.88624 13.311H17.9191L14.9087 16.3219C14.7153 16.5152 14.7153 16.8287 14.9087 17.022L16.4899 18.6037C16.5827 18.6965 16.709 18.7488 16.84 18.7488C16.9714 18.7488 17.0972 18.6965 17.19 18.6037L23.855 11.9392C23.9478 11.8464 24 11.7201 24 11.5892C23.9998 11.4575 23.9471 11.3317 23.8542 11.2389Z" fill="current"/>
</svg>
