<svg width="21" height="20" viewBox="0 0 21 20" fill="none" xmlns="http://www.w3.org/2000/svg">
<path d="M21 14.9999C21 15.4384 20.8705 15.8448 20.6631 16.2025L14.0325 9.13707L20.5912 3.67207C20.8463 4.05767 21 4.51063 21 5.00011V14.9999ZM10.5 10.4199L19.6262 2.815C19.2517 2.61974 18.83 2.5 18.3751 2.5H2.62498C2.1695 2.5 1.74765 2.61974 1.37466 2.815L10.5 10.4199ZM13.0443 9.95985L10.9319 11.7213C10.8083 11.8238 10.6544 11.875 10.5 11.875C10.3455 11.875 10.1917 11.8238 10.0681 11.7213L7.95515 9.95977L1.24071 17.1155C1.64317 17.3559 2.11484 17.5 2.62494 17.5H18.3751C18.8851 17.5 19.357 17.3559 19.7593 17.1155L13.0443 9.95985ZM0.408911 3.67203C0.153818 4.05763 0 4.51059 0 5.00011V15C0 15.4384 0.128888 15.8449 0.337109 16.2025L6.96689 9.13588L0.408911 3.67203Z" fill="white"/>
</svg>
