<svg width="18" height="16" viewBox="0 0 18 16" fill="none" xmlns="http://www.w3.org/2000/svg">
<path fill-rule="evenodd" clip-rule="evenodd" d="M14.1231 16H7.08042V12.0533C7.08042 11.58 6.92979 11.1189 6.65012 10.7368L0.24374 1.97862C-0.164014 1.4285 -0.0482664 0.651884 0.501921 0.24413C1.05204 -0.163691 1.82866 -0.0488765 2.23648 0.501244L5.55081 4.97179C6.39194 6.10646 7.72074 6.77593 9.13454 6.77593H14.3145C15.6844 6.77593 17.175 8.26612 17.1751 9.63541V16H14.6948V14.7405H14.1231V16Z" fill="#AAAAAA"/>
<path d="M10.6016 5.97778C12.1629 5.97778 13.4282 4.71202 13.4282 3.15112C13.4282 1.58975 12.1629 0.324463 10.6016 0.324463C9.04019 0.324463 7.7749 1.58975 7.7749 3.15112C7.7749 4.71209 9.04019 5.97778 10.6016 5.97778Z" fill="#AAAAAA"/>
</svg>
