<svg width="23" height="19" viewBox="0 0 23 19" fill="none" xmlns="http://www.w3.org/2000/svg">
<path d="M23 2.31362C22.1537 2.69337 21.2443 2.95002 20.2898 3.06546C21.2641 2.47451 22.0122 1.5388 22.3646 0.423896C21.4529 0.971004 20.443 1.36837 19.3682 1.58255C18.5073 0.654589 17.281 0.074707 15.9238 0.074707C13.3178 0.074707 11.205 2.21249 11.205 4.84928C11.205 5.2235 11.2468 5.58792 11.3272 5.93737C7.40545 5.73826 3.92848 3.83738 1.60114 0.9487C1.19497 1.65389 0.962266 2.47408 0.962266 3.3491C0.962266 5.00557 1.79539 6.46702 3.06153 7.32323C2.28797 7.29846 1.56042 7.08368 0.924156 6.72606C0.923819 6.74598 0.923819 6.76599 0.923819 6.78608C0.923819 9.09948 2.55037 11.0293 4.70903 11.4679C4.31304 11.577 3.89618 11.6353 3.46577 11.6353C3.16173 11.6353 2.8661 11.6054 2.57805 11.5497C3.17847 13.4466 4.92112 14.827 6.98598 14.8656C5.37104 16.1462 3.33638 16.9095 1.12564 16.9095C0.744793 16.9095 0.369158 16.8869 0 16.8428C2.08825 18.1975 4.56862 18.9879 7.2334 18.9879C15.9128 18.9879 20.659 11.7124 20.659 5.40294C20.659 5.19592 20.6545 4.99 20.6454 4.78527C21.5673 4.11209 22.3674 3.27112 23 2.31362Z" fill="white"/>
</svg>
