<?xml version="1.0" encoding="UTF-8" standalone="no"?>
<!DOCTYPE svg PUBLIC "-//W3C//DTD SVG 1.1//EN" "http://www.w3.org/Graphics/SVG/1.1/DTD/svg11.dtd">
<svg width="100%" height="100%" viewBox="0 0 105 105" version="1.1" xmlns="http://www.w3.org/2000/svg" xmlns:xlink="http://www.w3.org/1999/xlink" xml:space="preserve" xmlns:serif="http://www.serif.com/" style="fill-rule:evenodd;clip-rule:evenodd;stroke-linecap:round;stroke-linejoin:round;stroke-miterlimit:1.5;">
    <g transform="matrix(1,0,0,1,-280.071,-236.5)">
        <g transform="matrix(4.54545,0,0,4.54545,-2185.61,-579.182)">
            <path d="M553.308,201.979C547.559,201.621 543,196.839 543,191C543,184.929 547.929,180 554,180C560.071,180 565,184.929 565,191C565,196.839 560.441,201.621 554.692,201.979L554.636,201.982L554.601,201.984L554.566,201.986L554.531,201.987L554.499,201.989C554.474,201.99 554.448,201.991 554.423,201.992L554.376,201.994L554.308,201.996L554.248,201.997L554.178,201.999L554.107,201.999L554.071,202L554.036,202L554,202L554.049,202L554.089,202L554.127,201.999L554.165,201.999L554.202,201.998L554.239,201.997L554.276,201.997L554.313,201.996L554.35,201.995L554.387,201.993L554.423,201.992L554.461,201.99L554.503,201.989L554.543,201.987L554.581,201.985L554.618,201.983L554.655,201.981L554.692,201.979C557.71,201.791 560.398,200.381 562.241,198.213C561.362,195.794 558.002,194 554,194C549.998,194 546.638,195.794 545.759,198.213C547.602,200.381 550.29,201.791 553.308,201.979L553.35,201.981L553.388,201.983L553.426,201.985L553.464,201.987L553.501,201.989L553.539,201.99L553.577,201.992L553.624,201.994L553.663,201.995L553.702,201.996L553.739,201.997L553.777,201.998L553.814,201.998L553.851,201.999L553.889,201.999L553.926,202L553.963,202L554,202L553.951,202L553.884,201.999L553.822,201.999L553.752,201.997L553.681,201.995L553.646,201.994L553.61,201.993L553.577,201.992C553.552,201.991 553.526,201.99 553.501,201.989L553.457,201.987L553.399,201.984L553.329,201.98L553.308,201.979ZM554,184.125C555.932,184.125 557.5,185.889 557.5,188.063C557.5,190.236 555.932,192 554,192C552.068,192 550.5,190.236 550.5,188.063C550.5,185.889 552.068,184.125 554,184.125Z" style="fill:rgb(51,51,51);stroke:rgb(51,51,51);stroke-width:1.1px;"/>
        </g>
    </g>
</svg>
